<?xml version="1.0" encoding="UTF-8"?>
<!DOCTYPE svg PUBLIC "-//W3C//DTD SVG 1.1//EN" "http://www.w3.org/Graphics/SVG/1.1/DTD/svg11.dtd">
<!-- Creator: CorelDRAW -->
<svg xmlns="http://www.w3.org/2000/svg" xml:space="preserve" width="280.409mm" height="280.409mm" version="1.1" style="shape-rendering:geometricPrecision; text-rendering:geometricPrecision; image-rendering:optimizeQuality; fill-rule:evenodd; clip-rule:evenodd"
viewBox="0 0 3366.24 3366.24"
 xmlns:xlink="http://www.w3.org/1999/xlink"
 xmlns:xodm="http://www.corel.com/coreldraw/odm/2003">
 <defs>
  <style type="text/css">
   <![CDATA[
    .fil0 {fill:red}
    .fil1 {fill:#FFFCFB}
   ]]>
  </style>
 </defs>
 <g id="Layer_x0020_1">
  <metadata id="CorelCorpID_0Corel-Layer"/>
  <circle class="fil0" cx="1683.12" cy="1683.12" r="1683.12"/>
  <path class="fil1" d="M1487.07 2765.32l394.6 2.16 464.04 -1314.3 -278.96 -2.42 -185.03 534.11c-30.64,89.15 -61.12,174.23 -92.8,268.55 -19.18,57.1 -59.36,237.56 -105.74,267.3 -29.89,-29.84 -39.96,-85.07 -53.08,-123.2l-140.13 -406.5c-38.97,-107.38 -142.86,-465.15 -190.36,-538.48l-277.37 -1.93 464.84 1314.71zm-465.12 -1504.12l266.7 1.21c57.05,-514.53 718.81,-538.11 789.04,-0.54l266.82 0.29c15.61,-360.58 -300.01,-662.71 -661.32,-663.4 -353.56,-0.67 -687,306.45 -661.23,662.44z"/>
 </g>
</svg>
